<svg xmlns="http://www.w3.org/2000/svg" viewBox="0 0 129.67 119.35"><defs><style>.cls-1{fill:#e6d99c;}.cls-2{fill:#e4642a;}.cls-3{fill:#5c964c;}.cls-4{fill:#736357;stroke:#8c6239;}.cls-10,.cls-13,.cls-14,.cls-4,.cls-5,.cls-7{stroke-miterlimit:10;}.cls-4,.cls-5{stroke-width:0.25px;}.cls-5{fill:#fff;stroke:#fcfcfc;}.cls-6{fill:#3d3d3d;}.cls-7,.cls-8{fill:#f9e130;}.cls-7{stroke:#38062f;stroke-width:2px;}.cls-9{fill:#38062f;}.cls-10,.cls-13{fill:#fbbd42;stroke-width:3px;}.cls-10{stroke:#f9db26;}.cls-11{fill:#b6a88e;}.cls-12{fill:#c1a736;}.cls-13{stroke:#f7cf2b;}.cls-14{fill:#dbcfa9;stroke:#ead3af;}.cls-15{fill:#91d5e7;}.cls-16{fill:#5ad5e7;}</style></defs><title>E3</title><g id="Layer_2" data-name="Layer 2"><g id="DESIGNmain"><g id="ELEC_copy" data-name="ELEC copy"><g id="E_Octopus_copy_4" data-name="E_Octopus copy 4"><g id="Octopus"><g id="Stick"><path class="cls-1" d="M1,23.3a1,1,0,0,0,0-2,1,1,0,0,0,0,2Z"/><path class="cls-1" d="M1.77,23.36l10.11,5.3.5-.86-5.8-3c-.57-.3-1.08.56-.5.86l5.8,3c.57.3,1.08-.56.5-.86L2.27,22.5c-.57-.3-1.08.56-.5.86Z"/><path class="cls-1" d="M16.23,30.24l6,3.17.51-.87-3.47-1.81c-.57-.3-1.08.56-.51.86l3.47,1.82c.57.3,1.08-.57.51-.87l-6.05-3.16c-.57-.3-1.07.56-.5.86Z"/></g><g id="Stick-2" data-name="Stick"><path class="cls-1" d="M21.57,2a1,1,0,0,0,0-2,1,1,0,0,0,0,2Z"/><path class="cls-1" d="M21.79,2.28l6.65,9.29.87-.51L25.49,5.74c-.37-.52-1.24,0-.86.5l3.81,5.33c.37.52,1.24,0,.87-.51L22.66,1.78c-.38-.52-1.24,0-.87.5Z"/><path class="cls-1" d="M31.61,14.94l4,5.54.87-.5-2.28-3.19c-.37-.51-1.24,0-.87.51l2.28,3.18c.38.52,1.24,0,.87-.5l-4-5.55c-.37-.52-1.23,0-.86.51Z"/></g><g id="Stick-3" data-name="Stick"><path class="cls-1" d="M110.51,5.59a1,1,0,0,0,0-2,1,1,0,0,0,0,2Z"/><path class="cls-1" d="M109.52,5.43l-4.61,10.44.86.51,2.65-6c.26-.58-.6-1.09-.86-.5l-2.65,6c-.26.58.6,1.09.86.51l4.62-10.45c.26-.58-.61-1.09-.87-.5Z"/><path class="cls-1" d="M103.62,20.31l-2.76,6.24.86.51,1.58-3.58c.26-.59-.6-1.1-.86-.51l-1.58,3.58c-.26.59.6,1.09.86.51l2.76-6.24c.26-.59-.6-1.1-.86-.51Z"/></g><g id="Body"><path class="cls-2" d="M67,48.05s.75-3.21-1-5.28c0,0-18.06-19.12-4.57-33.69,0,0,14.17-11.2,21.18,7.83,0,0,4.18,16.05-8.09,25.5,0,0-3,3.37-1.76,5,0,0,13.63,2.56,14.71-19.16,0,0,6.61-21.72,19.29-10.93,0,0,1.26.24,1.16,3.41,0,0-2.27,4.65-7-1.78,0,0-5.84-3.27-8.12,13.16,0,0,2.38,14.16-3.66,20.1s-.5,3-.5,3,14.35-11.68,25.24-9c0,0,8.81,1.76,11.29-15.3,0,0,.79-4.79-1.49-5.78,0,0-.69-4.66,3.17-1.59,0,0,3.56,2.58,2.77,8.61,0,0-2.38,20-15.54,18.22,0,0-14.75-3-23,9.4,0,0-4.34,4.79.41,2.12s7.08-1,9-3.49l2.92-3.89s4.88-7.05,2.55,2.9c0,0-5.44,9.71-14.25,8.43L86.8,73.87s10.29-4,8.32,21.88c0,0-.9,13.85,10,13.85,0,0,5.54,2-1.68,3.47,0,0-14.36.64-14.75-20.19,0,0,1.59-15.94-8.11-18.51L66.61,80l-16,18.21s-13.26,8.91-18.7,8.41c0,0-3.86-.39-2.58-2.87,0,0,7.53-1,12.48-6.43L47.9,84.56l-2.18-.3,4.06-12.47.1-5,1.59-6.64-6.24.4s-12-10.29-14.35-18.9c0,0-3-19.7-14-13.07,0,0-1.09,1-.59,1.78l3.17,1.59s-5.84,4.25-7.33-4c0,0,1.19-9.41,12.67-4.26,0,0,8.31,2.57,11.28,13.86,0,0,5.25,16.82,16.53,15.64,0,0-12.76-8.12-12-21.58,0,0,3.76-20.79-9.21-16.73l3.07,4.36s-10.39.49-5.74-8c0,0,3.56-5,13.26,2.18,0,0,5.35,2.44,5,18.51C47.11,31.91,53.93,56.08,67,48.05Z"/></g><path id="Bow" class="cls-3" d="M68.88,46.25s-2-2.16-4.58-1.78c0,0-3.24,2.54.57,5.65,0,0,1.9.76,3.68-1.59l3.24.07s2.35,2.46,4.45,1.64c0,0,1.65-2,0-5.52,0,0-1.72-1-4.38,1.4Z"/><g id="Beard"><path class="cls-4" d="M70.34,27.24s2.06-2.42,6.47.85a3.13,3.13,0,0,0,2.36-.86S73.21,34.89,70.34,27.24Z"/><path class="cls-4" d="M70.34,27.24s-2-2.42-6.29.85a3,3,0,0,1-2.28-.86S67.55,34.89,70.34,27.24Z"/></g><g id="Glasses"><path id="Glasses-2" data-name="Glasses" class="cls-5" d="M57.23,19.57V18.1s8.24-.65,10.63.34a15.08,15.08,0,0,0,4.54,0,50.13,50.13,0,0,1,10-.58v1.68s-.79,0-.87.53c0,0,1,5-5.32,5,0,0-4.08,1-5.74-5H69.42s-.11,5.06-5.89,5.08c0,0-4.68.77-5.55-5C58,20.21,58.21,19.34,57.23,19.57Z"/><path class="cls-6" d="M59.23,19.34s-1.17,4.91,4.07,5.21c0,0,3.68.45,4.56-3,0,0,.5-3.32-3.91-3.09C64,18.44,59.53,18,59.23,19.34Z"/><path class="cls-6" d="M80.64,19.5s1.17,4.91-4.08,5.21c0,0-3.67.46-4.55-3,0,0-.5-3.32,3.91-3.09C75.92,18.6,80.33,18.15,80.64,19.5Z"/></g></g><g id="Drump1_copy_4" data-name="Drump1 copy 4"><g id="Big_drum" data-name="Big drum"><circle id="Big_drum-2" data-name="Big drum" class="cls-7" cx="67.01" cy="97.95" r="20.4"/><path class="cls-8" d="M85.81,90.23"/><path class="cls-9" d="M85.81,92.23c2.57,0,2.58-4,0-4s-2.58,4,0,4Z"/><path class="cls-8" d="M85.81,105.75"/><path class="cls-9" d="M85.81,107.75c2.57,0,2.58-4,0-4s-2.58,4,0,4Z"/><path class="cls-8" d="M75.3,116.81"/><path class="cls-9" d="M75.3,118.81c2.57,0,2.57-4,0-4s-2.58,4,0,4Z"/><path class="cls-8" d="M58.55,116.81"/><path class="cls-9" d="M58.55,118.81c2.57,0,2.57-4,0-4s-2.58,4,0,4Z"/><path class="cls-8" d="M47.77,104.44"/><path class="cls-9" d="M47.77,106.44c2.57,0,2.58-4,0-4s-2.58,4,0,4Z"/><path class="cls-8" d="M74.27,79.28"/><path class="cls-9" d="M74.27,81.28c2.57,0,2.58-4,0-4s-2.58,4,0,4Z"/><path class="cls-8" d="M53.51,82"/><path class="cls-9" d="M53.51,84c2.57,0,2.57-4,0-4s-2.58,4,0,4Z"/></g><g id="yellow2"><ellipse class="cls-10" cx="101.05" cy="49.28" rx="14.9" ry="2.61" transform="translate(-10.28 33.63) rotate(-18)"/><g id="Foot"><path class="cls-11" d="M101,51v53.44a.5.5,0,0,0,1,0V51a.5.5,0,0,0-1,0Z"/><path class="cls-11" d="M91.85,114.06l10-8.77c.48-.43-.23-1.13-.71-.71l-10,8.77c-.49.43.22,1.13.7.71Z"/><path class="cls-11" d="M110.53,114.19,102,104.06c-.41-.5-1.12.21-.71.7l8.49,10.14c.41.49,1.12-.22.71-.71Z"/><path class="cls-11" d="M103.07,118.29l-1.1-13c0-.63-1-.64-1,0l1.1,13c.05.64,1.05.64,1,0Z"/></g><path class="cls-12" d="M101.32,51.2a1,1,0,0,0,0-2,1,1,0,0,0,0,2Z"/></g><g id="yellow1"><ellipse class="cls-13" cx="27.33" cy="46.05" rx="2.68" ry="14.98" transform="translate(-25.95 51.46) rotate(-65.1)"/><g id="Foot-2" data-name="Foot"><path class="cls-11" d="M27.26,47.8V103a.5.5,0,0,0,1,0V47.8a.5.5,0,0,0-1,0Z"/><path class="cls-11" d="M18.14,112.93l10-9.06c.48-.43-.23-1.14-.71-.71l-10,9.06c-.48.44.23,1.14.71.71Z"/><path class="cls-11" d="M36.81,113.09l-8.48-10.47c-.41-.5-1.11.22-.71.71L36.1,113.8c.41.5,1.11-.21.71-.71Z"/><path class="cls-11" d="M29.35,117.31l-1.09-13.43c-.05-.64-1.05-.64-1,0l1.09,13.43c0,.64,1,.64,1,0Z"/></g><path class="cls-12" d="M27.6,48a1,1,0,0,0,0-2,1,1,0,0,0,0,2Z"/></g><g id="Drum1"><ellipse class="cls-14" cx="36.8" cy="89.63" rx="10.32" ry="5.2" transform="translate(-20.39 11.42) rotate(-13.86)"/><path class="cls-15" d="M25.19,71.1l2.35,20.52s11.83,5.57,18.32-4.4L43.78,64.88Z"/><path class="cls-16" d="M37.6,92.88a13.92,13.92,0,0,0,8.26-5.66L43.72,64.88l-8,2.69Z"/><ellipse class="cls-14" cx="33.71" cy="68.17" rx="11.32" ry="2.4" transform="translate(-10.35 6.18) rotate(-9.09)"/></g><g id="Drum4"><ellipse class="cls-14" cx="94.46" cy="73.64" rx="2.57" ry="10.3" transform="translate(17.62 165.51) rotate(-88.03)"/><path class="cls-15" d="M87,64.88,85,73.37s10.3,3.9,18.73.87l2.71-9.18Z"/><path class="cls-16" d="M94.47,75.31a27.3,27.3,0,0,0,9.23-1.07l2.66-9.19L98,65Z"/><ellipse class="cls-14" cx="96.09" cy="65.36" rx="1.18" ry="10.04" transform="translate(27.39 159.09) rotate(-87.98)"/></g><g id="Drum2"><ellipse class="cls-14" cx="51.49" cy="58.76" rx="4.48" ry="10.78" transform="translate(-12.02 104.28) rotate(-84.4)"/><path class="cls-15" d="M40.75,72.46l.89-14.91s12-4.87,19.54,1.82l-.47,16.2Z"/><path class="cls-16" d="M52.09,55.91s5.4.29,9.09,3.46l-.52,16.2-8.57-1.34Z"/><ellipse class="cls-14" cx="49.84" cy="75.26" rx="4.12" ry="10.51" transform="translate(-29.93 117.52) rotate(-84.4)"/></g><g id="Drum3"><ellipse class="cls-14" cx="75.3" cy="60.63" rx="11.61" ry="4.83" transform="translate(-4.63 6.24) rotate(-4.61)"/><path class="cls-15" d="M66.52,77.21l-1.91-16s11.78-7.46,21.08-1.81l2.6,17.28Z"/><path class="cls-16" d="M75.38,57.49s5.79-.72,10.31,1.93l2.54,17.29-9.35.21Z"/><ellipse class="cls-14" cx="76.7" cy="78.45" rx="11.32" ry="4.44" transform="translate(-6.05 6.41) rotate(-4.61)"/></g></g></g></g></g></g></svg>