<svg xmlns="http://www.w3.org/2000/svg" viewBox="0 0 110.73 136.77"><defs><style>.cls-1{fill:#12c2ff;}.cls-2{fill:#0dffdc;}.cls-3{fill:#ff8500;}.cls-4{fill:#ff4a2c;}.cls-5{fill:#ff005c;}.cls-6{fill:#dd1944;}.cls-7{fill:#152cb5;}.cls-8{fill:#c5dc93;stroke:#c5dc93;stroke-miterlimit:10;}.cls-9{fill:#4f5157;}.cls-10{fill:#211d1d;}.cls-11{fill:#fff;}.cls-12{fill:#b3b3b3;}.cls-13{fill:#7fb174;}.cls-14{fill:#e0ddd6;}.cls-15{fill:#f9f9f9;}</style></defs><title>H2</title><g id="Layer_2" data-name="Layer 2"><g id="DESIGNmain"><g id="HIPHOP_copy" data-name="HIPHOP copy"><g id="H_Crocodile_copy_2" data-name="H_Crocodile copy 2"><g id="Scale"><path class="cls-1" d="M27.33,15.09s-9.6.24-16.37,5.7c0,0,6.05,9.61,12.1,10.56Z"/><path class="cls-2" d="M24.35,32.16S14.89,33.85,9,40.27c0,0,7.43,8.59,13.56,8.61Z"/><path class="cls-3" d="M23.36,49.5s-9.41,2-15.08,8.55c0,0,7.68,8.37,13.81,8.21Z"/><path class="cls-4" d="M24.23,66.88s-9.41,2-15.08,8.55c0,0,7.68,8.37,13.81,8.21Z"/><path class="cls-5" d="M25.53,84.26s-9.4,2-15.08,8.55c0,0,7.69,8.37,13.81,8.21Z"/><path class="cls-6" d="M27.21,102.86s-8-.6-14.06,3.36c0,0,4.21,8.48,9.15,9.77Z"/><path class="cls-7" d="M22,117.58s-4.91-3.74-10.49-3.71c0,0-.82,7.24,1.83,10.14Z"/></g><g id="upper_green_copy_4" data-name="upper_green copy 4"><path class="cls-8" d="M35.57,75.83S36.84,50.66,52.49,51.6c0,0,10.11-1.29,13.64,14.4,0,0,20.33,52.45-15.28,45C50.85,111,33.17,87.77,35.57,75.83Z"/></g><g id="Guitar"><g id="Guitar_base"><path class="cls-9" d="M58.16,74.39,62.38,79l31.44-28.7-1.3-1.57s1.57-1.3.75-2.11c0,0-.88-.28-2,.81L89.87,46Z"/><path class="cls-10" d="M63.91,69s-9.76-10.62-17.64,3.53c0,0-1.34,5.9-8.85,4.56,0,0-25.93,3.54-13.34,26.74,0,0,13.27,22.42,29.59,6.29,0,0,3.54-2.65,4.92-11.11,0,0-1.18-5.19,6.78-8.44,0,0,12.39-5.42,2-5.82,0,0-5.51-1.27-3.15-7.17Z"/></g><path class="cls-11" d="M60.82,72.08s2,3.16,2.52,10.3c0,0,.64,3.92,5.56,2.78,0,0,2.72-.37.64,2.28,0,0-.89,1.39-5,2.91,0,0-6.63,1.58-6.69,6.57,0,0-.13,10.49-7.71,15,0,0-1.52,1.07-1.27-.51,0,0,1.71-11.82-1.64-14.85a13.07,13.07,0,0,0-4.11-4.37s-5.37-4.73.44-8.08c0,0,7.21-1.9,11.13-7.14a16.4,16.4,0,0,0,2-4.87S57.53,68.29,60.82,72.08Z"/><g id="String"><path class="cls-12" d="M40.49,97.92,95.88,48.17c.09-.08,0-.22-.15-.14L40.34,97.78c-.09.08,0,.23.15.14Z"/><path class="cls-12" d="M39.77,97.19,95.16,47.44c.09-.08,0-.22-.14-.14L39.63,97.05c-.1.08,0,.23.14.14Z"/><path class="cls-12" d="M38.89,96.3,94.27,46.55c.1-.09,0-.23-.14-.14L38.74,96.15c-.09.09,0,.23.15.15Z"/><path class="cls-12" d="M38.11,95.51,93.5,45.76a.1.1,0,0,0-.14-.14L38,95.36c-.1.09,0,.23.14.15Z"/><path class="cls-12" d="M37.29,94.68,92.68,44.93c.1-.08,0-.23-.14-.14L37.15,94.54c-.09.08.05.22.14.14Z"/></g><path id="tip" class="cls-10" d="M89.45,46.54,90.61,48s4.21-2.68,1.5,1.25l1.22,1.48,2.09-2.08,2,0s1.78.69,2.69-1.54c0,0,2.49-4.64,4.24-5.8,0,0,.79-1.65,5-2.39,0,0,3.82-2.62-1.26-4.48l-2.69.75s-8.47,3.08-11.17,5.1C94.23,40.32,92.85,41,89.45,46.54Z"/></g><path id="down" class="cls-13" d="M22.74,102.19S24.21,117.31,12.17,123c0,0-4.06,2-8.73-4.79,0,0-3.56-3.08-3.44,3.31,0,0,1,12.91,11.4,14.51,0,0,17.24,5.53,21.29-12.79v13.57H55.06s.25-10.62-9-6.31c0,0-2-9.42,3.44-11,0,0,6.76-2.91,7.62,8.39,0,0,.24,2.8.49,8.9H78S79.39,127,68,129.84l-.24-14.13s19.17-8.6,5.16-42.4c0,0,14.25,2.58,18.19-6.14,0,0,2.33-3.2-3.2-12.42,0,0-3.72-4.3-2.37.71l.32,1.3s-1.45-3.6-2.35-2.61c0,0-1,.09.45,4.06,0,0-1.76-4.51-2.93-3.11,0,0-.72.45.59,4,0,0-.82-2.35-2.12-2.53,0,0-1.4-.09.36,6.68L68,74s4.47,15.12,3.34,19.31,1.13,21.16-19.14,17.83c0,0-8.67,10.52-22.6-.46A28.25,28.25,0,0,1,22.74,102.19Z"/><g id="Dots"><path class="cls-14" d="M45.46,104.62a1,1,0,0,0,0-2,1,1,0,0,0,0,2Z"/><path class="cls-14" d="M42.43,112.39a1,1,0,0,0,0-2,1,1,0,0,0,0,2Z"/><path class="cls-14" d="M35.35,108.6a1,1,0,0,0,0-2,1,1,0,0,0,0,2Z"/><path class="cls-14" d="M38.38,102.72a1,1,0,0,0,0-2,1,1,0,0,0,0,2Z"/><path class="cls-14" d="M29.35,101.33a1,1,0,0,0,0-2,1,1,0,0,0,0,2Z"/><path class="cls-14" d="M25.49,94a1,1,0,0,0,0-2,1,1,0,0,0,0,2Z"/><path class="cls-14" d="M41.73,81a1,1,0,0,0,0-2,1,1,0,0,0,0,2Z"/><path class="cls-14" d="M48.56,79.21a1,1,0,0,0,0-2,1,1,0,0,0,0,2Z"/><path class="cls-14" d="M54.18,75a1,1,0,0,0,0-2,1,1,0,0,0,0,2Z"/><path class="cls-14" d="M55.82,67.52a1,1,0,0,0,0-2,1,1,0,0,0,0,2Z"/></g><path id="upper" class="cls-13" d="M61.86,35.93l29.65-1.2s5.63-.14,5.49-4.63a45.18,45.18,0,0,1,0-5.63V23.21h1.68S105,8.31,96.57,8.45H92.78s-.84-6.84-3.94-2.79c0,0-3.65-4.94-4.07,2.93,0,0-21.92-1.82-27.12-.56,0,0,1.4-8.29-3.94-8,0,0-5.2-.42-3.37,8.71L46.82,9s1.69-9.43-4.21-9c0,0-6.61-.41-3.94,9.85,0,0-10.4.14-15,11.94a250.13,250.13,0,0,0-1.79,62.89l.24,1.89,4.38-5.1s3.68,11,4.5,12.76,4.9,7.65,3.57,1.94c0,0,4,3.77,2.65-1.13,0,0,4.49,3.27,2.25-1.84,0,0,4.29,3.07,1.63-1.93A27.82,27.82,0,0,1,37.5,77h1.12l.51-6S43,52.28,52.4,53.3c0,0,10.72-1.33,13.89,13.78l7.65-6.63s-.61-1.94-6.12-.82C67.82,59.63,61.11,45.21,61.86,35.93Z"/><g id="Key"><path class="cls-9" d="M54.23,78.77q2.12,2.2,4.14,4.48c.86,1,2.27-.46,1.41-1.41q-2-2.28-4.13-4.48c-.89-.93-2.31.48-1.42,1.41Z"/><path class="cls-9" d="M49.14,83.25q2.1,2.2,4.13,4.48c.86,1,2.27-.46,1.42-1.42-1.36-1.51-2.74-3-4.14-4.47-.89-.94-2.3.48-1.41,1.41Z"/><path class="cls-10" d="M94.46,40.45l-.65-.75c-.21-.25-.56.11-.35.35l.64.75c.21.24.56-.11.36-.35Z"/><path class="cls-10" d="M97,39.07l-.55-1a.25.25,0,0,0-.43.25l.55,1a.25.25,0,0,0,.43-.25Z"/><path class="cls-10" d="M100.13,37.53l-.38-.83c-.14-.29-.57,0-.44.26l.39.82c.13.29.56,0,.43-.25Z"/><path class="cls-10" d="M103,36.26l-.26-.76c-.11-.3-.59-.17-.49.14l.27.75c.11.3.59.17.48-.13Z"/><path class="cls-10" d="M106,35.44a5.42,5.42,0,0,0-.35-.95c-.14-.29-.58,0-.44.26a3.85,3.85,0,0,1,.31.82.25.25,0,0,0,.48-.13Z"/><path class="cls-10" d="M93.06,39.87a.75.75,0,0,0,0-1.5.75.75,0,0,0,0,1.5Z"/><path class="cls-10" d="M95.85,38.16a.75.75,0,0,0,0-1.5.75.75,0,0,0,0,1.5Z"/><path class="cls-10" d="M98.82,36.44a.75.75,0,0,0,0-1.5.75.75,0,0,0,0,1.5Z"/><path class="cls-10" d="M101.86,35.11a.75.75,0,0,0,0-1.5.75.75,0,0,0,0,1.5Z"/><path class="cls-10" d="M105.09,34.29a.75.75,0,0,0,0-1.5.75.75,0,0,0,0,1.5Z"/></g><g id="Eyes"><path class="cls-10" d="M40.78,4.92c.1,1.55-.42,4.27,1.86,4.5S45,6.59,44.93,5a.25.25,0,0,0-.5,0c0,1.27.16,4.42-2,3.86-1.67-.43-1.11-2.73-1.19-4,0-.32-.52-.32-.5,0Z"/><path class="cls-10" d="M52.13,3.64a4.73,4.73,0,0,0,.14,2.91,2,2,0,0,0,1.86,1.21c2.14-.17,1.65-3,1.44-4.38,0-.31-.53-.18-.48.14.16,1.08.68,3.09-.68,3.65-.84.34-1.58-.42-1.82-1.16a5.09,5.09,0,0,1,0-2.23c0-.32-.43-.45-.48-.14Z"/></g><g id="Nose"><path class="cls-10" d="M86.87,8.29a6.68,6.68,0,0,1,.07-1.48c.06-.31-.42-.45-.48-.13a6.64,6.64,0,0,0-.09,1.61c0,.31.53.32.5,0Z"/><path class="cls-10" d="M90.81,8.19V6.46a.25.25,0,0,0-.5,0V8.19a.25.25,0,0,0,.5,0Z"/></g><g id="Teeth"><polygon class="cls-15" points="46.21 23.29 49.41 28.74 54.63 23.29 46.21 23.29"/><polygon class="cls-15" points="55.96 23.29 59.16 28.74 64.39 23.29 55.96 23.29"/><polygon class="cls-15" points="65.4 23.29 68.61 28.74 73.83 23.29 65.4 23.29"/></g><g id="Mouth"><path class="cls-10" d="M42.53,22.66c8.34,1.63,17,.66,25.49.69,9.55,0,19.09.41,28.62,1.07.32,0,.32-.48,0-.5-8.87-.61-17.75-1-26.64-1.06s-18.44,1.06-27.34-.69c-.31-.06-.45.42-.13.49Z"/></g></g></g></g></g></svg>