<svg xmlns="http://www.w3.org/2000/svg" viewBox="0 0 129.67 122.57"><defs><style>.cls-1{fill:#e6d99c;}.cls-14,.cls-2{fill:#dbcfa9;}.cls-3{fill:#b6a88e;}.cls-4{fill:#9d8c71;}.cls-5{fill:#7ea093;}.cls-6{fill:#df4055;stroke:#df4055;}.cls-10,.cls-12,.cls-14,.cls-6,.cls-7,.cls-8,.cls-9{stroke-miterlimit:10;}.cls-6,.cls-7,.cls-8,.cls-9{stroke-width:0.25px;}.cls-7{fill:#736357;stroke:#8c6239;}.cls-8{fill:#eeee86;stroke:#eeee86;}.cls-10,.cls-9{fill:#7f7d75;}.cls-9{stroke:#7f7d75;}.cls-10{stroke:#4d4d4d;}.cls-11{fill:#e1ca77;}.cls-12{fill:#e3c639;stroke:#e1ca77;stroke-width:3px;}.cls-13{fill:#c1a736;}.cls-14{stroke:#ead3af;}.cls-15{fill:#5c957b;}.cls-16{fill:#385e4f;}</style></defs><title>H3</title><g id="Layer_2" data-name="Layer 2"><g id="DESIGNmain"><g id="HIPHOP_copy" data-name="HIPHOP copy"><g id="H_Octopus_copy" data-name="H_Octopus copy"><g id="Octopus"><g id="Stick"><path class="cls-1" d="M1,27a1,1,0,0,0,0-2,1,1,0,0,0,0,2Z"/><path class="cls-1" d="M1.77,27.08l10.11,5.3.5-.86-5.8-3c-.57-.3-1.08.56-.5.86l5.8,3c.57.3,1.08-.56.5-.86L2.27,26.22c-.57-.3-1.08.56-.5.86Z"/><path class="cls-1" d="M16.23,34l6,3.17.51-.87-3.47-1.81c-.57-.3-1.08.56-.51.86l3.47,1.82c.57.3,1.08-.57.51-.87L16.73,33.1c-.57-.3-1.07.56-.5.86Z"/></g><g id="Stick-2" data-name="Stick"><path class="cls-1" d="M21.57,5.72a1,1,0,0,0,0-2,1,1,0,0,0,0,2Z"/><path class="cls-1" d="M21.79,6l6.65,9.29.87-.51L25.49,9.46c-.37-.52-1.24,0-.86.5l3.81,5.33c.37.52,1.24,0,.87-.51L22.66,5.5c-.38-.52-1.24,0-.87.5Z"/><path class="cls-1" d="M31.61,18.66l4,5.54.87-.5-2.28-3.19c-.37-.51-1.24,0-.87.51l2.28,3.18c.38.52,1.24,0,.87-.5l-4-5.55c-.37-.52-1.23,0-.86.51Z"/></g><g id="Stick-3" data-name="Stick"><path class="cls-1" d="M110.51,9.31a1,1,0,0,0,0-2,1,1,0,0,0,0,2Z"/><path class="cls-1" d="M109.52,9.15l-4.61,10.44.86.51,2.65-6c.26-.58-.6-1.09-.86-.5l-2.65,6c-.26.58.6,1.09.86.51l4.62-10.45c.26-.58-.61-1.09-.87-.5Z"/><path class="cls-1" d="M103.62,24l-2.76,6.24.86.51,1.58-3.58c.26-.59-.6-1.1-.86-.51l-1.58,3.58c-.26.59.6,1.09.86.51l2.76-6.24c.26-.59-.6-1.1-.86-.51Z"/></g><g id="Hat"><path class="cls-2" d="M61.28,7S64.47-1.92,70.84.38c0,0,3.76.15,6.53,7.13s-2.88,0-2.88,0Z"/><path class="cls-3" d="M56.77,25.4s-7.48-4.89-4.9-13.26c0,0,1.53-7.58,17.95-5.59,0,0,8.52,1.5,11.57,0,0,0,18.94-4.3,1.75,17.82Z"/><path class="cls-4" d="M56.5,25s-1.56-10.07,6-14.89c0,0,13.38-8.72,18.68,7.42Z"/></g><g id="Body"><path class="cls-5" d="M67,51.77s.75-3.21-1-5.28c0,0-18.06-19.12-4.57-33.69,0,0,14.17-11.2,21.18,7.83,0,0,4.18,16.05-8.09,25.5,0,0-3,3.37-1.76,5,0,0,13.63,2.56,14.71-19.16,0,0,6.61-21.72,19.29-10.93,0,0,1.26.24,1.16,3.41,0,0-2.27,4.65-7-1.78,0,0-5.84-3.27-8.12,13.16,0,0,2.38,14.16-3.66,20.1s-.5,3-.5,3,14.35-11.68,25.24-9c0,0,8.81,1.76,11.29-15.3,0,0,.79-4.79-1.49-5.78,0,0-.69-4.66,3.17-1.59,0,0,3.56,2.58,2.77,8.61,0,0-2.38,20-15.54,18.22,0,0-14.75-3-23,9.4,0,0-4.34,4.79.41,2.12s7.08-1,9-3.49l2.92-3.89s4.88-7,2.55,2.9c0,0-5.44,9.71-14.25,8.43L86.8,77.59s10.29-4,8.32,21.88c0,0-.9,13.85,10,13.85,0,0,5.54,2-1.68,3.47,0,0-14.36.64-14.75-20.19,0,0,1.59-15.94-8.11-18.51l-14,5.64-16,18.21s-13.26,8.91-18.7,8.41c0,0-3.86-.39-2.58-2.87,0,0,7.53-1,12.48-6.43L47.9,88.28,45.72,88l4.06-12.47.1-5,1.59-6.64-6.24.4s-12-10.29-14.35-18.9c0,0-3-19.7-14-13.07,0,0-1.09,1-.59,1.78l3.17,1.59s-5.84,4.25-7.33-4c0,0,1.19-9.41,12.67-4.26,0,0,8.31,2.57,11.28,13.86,0,0,5.25,16.82,16.53,15.64,0,0-12.76-8.12-12-21.58,0,0,3.76-20.79-9.21-16.73L34.54,23s-10.39.49-5.74-8c0,0,3.56-4.95,13.26,2.18,0,0,5.35,2.44,5,18.51C47.11,35.63,53.93,59.8,67,51.77Z"/></g><path id="Bow" class="cls-6" d="M68.88,50s-2-2.16-4.58-1.78c0,0-3.24,2.54.57,5.65,0,0,1.9.76,3.68-1.59l3.24.07s2.35,2.46,4.45,1.64c0,0,1.65-2,0-5.52,0,0-1.72-1-4.38,1.4Z"/><g id="Beard"><path class="cls-7" d="M70.34,31s2.06-2.42,6.47.85A3.13,3.13,0,0,0,79.17,31S73.21,38.61,70.34,31Z"/><path class="cls-7" d="M70.34,31s-2-2.42-6.29.85A3,3,0,0,1,61.77,31S67.55,38.61,70.34,31Z"/></g><g id="Glasses"><path id="Glasses-2" data-name="Glasses" class="cls-8" d="M57.23,23.29V21.82s8.24-.65,10.63.34a15.08,15.08,0,0,0,4.54,0,50.13,50.13,0,0,1,10-.58v1.68s-.79,0-.87.53c0,0,1,5-5.32,5,0,0-4.08,1-5.74-5H69.42s-.11,5.06-5.89,5.08c0,0-4.68.77-5.55-5C58,23.93,58.21,23.06,57.23,23.29Z"/><path class="cls-9" d="M59.23,23.06S58.06,28,63.3,28.27c0,0,3.68.45,4.56-3,0,0,.5-3.32-3.91-3.09C64,22.16,59.53,21.7,59.23,23.06Z"/><path class="cls-9" d="M80.64,23.22s1.17,4.91-4.08,5.21c0,0-3.67.46-4.55-3,0,0-.5-3.32,3.91-3.09C75.92,22.32,80.33,21.87,80.64,23.22Z"/></g></g><g id="Drump1_copy_4" data-name="Drump1 copy 4"><g id="Big_drum" data-name="Big drum"><circle id="Big_drum-2" data-name="Big drum" class="cls-10" cx="67.01" cy="101.67" r="20.4"/><path class="cls-11" d="M85.29,95a1,1,0,0,0,0-2,1,1,0,0,0,0,2Z"/><path class="cls-11" d="M85.29,110.53a1,1,0,0,0,0-2,1,1,0,0,0,0,2Z"/><path class="cls-11" d="M74.16,121.45a1,1,0,0,0,0-2,1,1,0,0,0,0,2Z"/><path class="cls-11" d="M58.55,121.9a1,1,0,0,0,0-2,1,1,0,0,0,0,2Z"/><path class="cls-11" d="M47.46,111a1,1,0,0,0,0-2,1,1,0,0,0,0,2Z"/><path class="cls-11" d="M74.27,84a1,1,0,0,0,0-2,1,1,0,0,0,0,2Z"/><path class="cls-11" d="M53.51,86.7a1,1,0,0,0,0-2,1,1,0,0,0,0,2Z"/></g><g id="yellow2"><ellipse class="cls-12" cx="101.05" cy="53" rx="14.9" ry="2.61" transform="translate(-11.43 33.82) rotate(-18)"/><g id="Foot"><path class="cls-3" d="M101,54.69v53.44a.5.5,0,0,0,1,0V54.69a.5.5,0,0,0-1,0Z"/><path class="cls-3" d="M91.85,117.78l10-8.77c.48-.43-.23-1.13-.71-.71l-10,8.77c-.49.43.22,1.13.7.71Z"/><path class="cls-3" d="M110.53,117.91,102,107.78c-.41-.5-1.12.21-.71.7l8.49,10.14c.41.49,1.12-.22.71-.71Z"/><path class="cls-3" d="M103.07,122,102,109c0-.63-1-.64-1,0l1.1,13c.05.64,1.05.64,1,0Z"/></g><path class="cls-13" d="M101.32,54.92a1,1,0,0,0,0-2,1,1,0,0,0,0,2Z"/></g><g id="yellow1"><ellipse class="cls-12" cx="27.33" cy="49.77" rx="2.68" ry="14.98" transform="translate(-29.32 53.61) rotate(-65.1)"/><g id="Foot-2" data-name="Foot"><path class="cls-3" d="M27.26,51.52V106.7a.5.5,0,0,0,1,0V51.52a.5.5,0,0,0-1,0Z"/><path class="cls-3" d="M18.14,116.65l10-9.06c.48-.43-.23-1.14-.71-.71l-10,9.06c-.48.44.23,1.14.71.71Z"/><path class="cls-3" d="M36.81,116.81l-8.48-10.46c-.41-.51-1.11.21-.71.7l8.48,10.47c.41.5,1.11-.21.71-.71Z"/><path class="cls-3" d="M29.35,121,28.26,107.6c-.05-.64-1.05-.64-1,0L28.35,121c0,.64,1,.64,1,0Z"/></g><path class="cls-13" d="M27.6,51.72a1,1,0,0,0,0-2,1,1,0,0,0,0,2Z"/></g><g id="Drum1"><ellipse class="cls-14" cx="36.8" cy="93.35" rx="10.32" ry="5.2" transform="translate(-21.28 11.53) rotate(-13.86)"/><path class="cls-15" d="M25.19,74.82l2.35,20.52s11.83,5.57,18.32-4.4L43.78,68.6Z"/><path class="cls-16" d="M37.6,96.6a13.92,13.92,0,0,0,8.26-5.66L43.72,68.6l-8,2.69Z"/><ellipse class="cls-14" cx="33.71" cy="71.89" rx="11.32" ry="2.4" transform="translate(-10.94 6.23) rotate(-9.09)"/></g><g id="Drum4"><ellipse class="cls-14" cx="94.46" cy="77.36" rx="2.57" ry="10.3" transform="matrix(0.03, -1, 1, 0.03, 13.9, 169.1)"/><path class="cls-15" d="M87,68.6,85,77.09S95.27,81,103.7,78l2.71-9.18Z"/><path class="cls-16" d="M94.47,79A27.3,27.3,0,0,0,103.7,78l2.66-9.19L98,68.7Z"/><ellipse class="cls-14" cx="96.09" cy="69.08" rx="1.18" ry="10.04" transform="translate(23.67 162.67) rotate(-87.98)"/></g><g id="Drum2"><ellipse class="cls-14" cx="51.49" cy="62.48" rx="4.48" ry="10.78" transform="translate(-15.72 107.63) rotate(-84.4)"/><path class="cls-15" d="M40.75,76.18l.89-14.91s12-4.87,19.54,1.82l-.47,16.2Z"/><path class="cls-16" d="M52.09,59.63s5.4.29,9.09,3.46l-.52,16.2L52.09,78Z"/><ellipse class="cls-14" cx="49.84" cy="78.98" rx="4.12" ry="10.51" transform="translate(-33.63 120.88) rotate(-84.4)"/></g><g id="Drum3"><ellipse class="cls-14" cx="75.3" cy="64.35" rx="11.61" ry="4.83" transform="translate(-4.93 6.26) rotate(-4.61)"/><path class="cls-15" d="M66.52,80.93,64.61,65s11.78-7.46,21.08-1.81l2.6,17.28Z"/><path class="cls-16" d="M75.38,61.21s5.79-.72,10.31,1.93l2.54,17.29-9.35.21Z"/><ellipse class="cls-14" cx="76.7" cy="82.17" rx="11.32" ry="4.44" transform="translate(-6.35 6.43) rotate(-4.61)"/></g></g></g></g></g></g></svg>