<svg xmlns="http://www.w3.org/2000/svg" viewBox="0 0 102.73 136.74"><defs><style>.cls-1{fill:#7fb174;}.cls-2{fill:#efab38;}.cls-3{fill:#9aceb9;}.cls-4{fill:#fdeec7;}.cls-5{fill:#685054;}.cls-6{fill:#c52c46;}.cls-7{fill:#517c76;}.cls-8{fill:#492c3b;}.cls-9{fill:#f67b24;}.cls-10{fill:#190f17;}.cls-11{fill:#630c3f;}.cls-12{fill:#9eb93a;}.cls-13{fill:#d62e60;}.cls-14{fill:#fe641a;}.cls-15{fill:#ab8b7f;}</style></defs><title>H4</title><g id="Layer_2" data-name="Layer 2"><g id="DESIGNmain"><g id="HIPHOP_copy" data-name="HIPHOP copy"><g id="H_Tiger_copy" data-name="H_Tiger copy"><g id="Ear"><path class="cls-1" d="M83.83,37.07s7.3-5.08,6.29-11.19c0,0-8.06-4.06-14.07.76C76.05,26.64,77.27,35.79,83.83,37.07Z"/><path class="cls-2" d="M76.59,19.31s9.67,2.84,11.13,5c0,0-2.53,6.84-5.56,7.63,0,0-8.47-3.58-9.11-5.08C73.05,26.89,72,26,76.59,19.31Z"/><path class="cls-1" d="M53.79,14.86S54,6,48.4,3.21c0,0-8,4.15-7.62,11.84C40.78,15.05,48.91,19.42,53.79,14.86Z"/></g><path id="Body" class="cls-1" d="M32.34,56.9s-16.18-13.39-11-35.71c0,0,61.36-31.61,66.19,37.57,0,0-17.29,13.2-30.68,10.78l.29,1.39H81.71s0,28.06-11.06,25.55a3.94,3.94,0,0,1-3.45-4.23s7.21-11,7.92-15.91L58.73,74.53s19.48,40.27-6.34,41.68l-2,7.92s17-7,13,1.28H47.92l-1.28-8.31-1.4,9.08H29.39s-2.81-9.08,12.52-1.28l-1.15-9.71A15.48,15.48,0,0,1,29,107.65S7.8,108.41,7.67,91.42c0,0,.38-5.88,2.3-20.45,0,0-7,1.53-10-3.58,0,0,.13-8.56,6.52-8.43,0,0,16.61,1.92,6.77,28,0,0-4.22,19.3,13.93,18.66,0,0-1.66-16.23,4.22-40.25L15.59,64.28s-14.22-30.37-11-32.8,5.13-1.66,7.69-.38c0,0,5.49,10,8.56,29.52L32,62.15Z"/><g id="Mouth_copy_4" data-name="Mouth copy 4"><path class="cls-3" d="M43.44,38.39S28.7,55.14,56.73,66.2c0,0,26.4,4.5,15.66-19C72.39,47.22,63.71,37.57,43.44,38.39Z"/><path class="cls-3" d="M49.18,69l8.09.79s15,34.62,6.57,40.54C63.84,110.29,44.61,104.9,49.18,69Z"/></g><g id="Layer_14_copy_4" data-name="Layer 14 copy 4"><circle class="cls-4" cx="49.76" cy="25.64" r="5.4"/><circle class="cls-4" cx="74.59" cy="35.61" r="4.58"/><g id="Layer_15_copy_4" data-name="Layer 15 copy 4"><ellipse class="cls-5" cx="50.3" cy="28.58" rx="3.46" ry="2.45" transform="translate(-3.41 7.09) rotate(-7.8)"/><ellipse class="cls-5" cx="72.93" cy="37.49" rx="2.26" ry="3.2" transform="translate(-3.06 68.31) rotate(-49.28)"/></g></g><g id="Nose"><polygon class="cls-6" points="49.18 38.39 72.39 47.22 58.84 55.15 49.18 38.39"/><polygon id="Nose1" class="cls-7" points="65.72 18.98 49.18 38.39 72.39 47.22 65.72 18.98"/></g><g id="Line_details_copy_4" data-name="Line details copy 4"><path class="cls-7" d="M45.77,42.78c1.79,5.1,3.71,10.55,8,14.1,4.48,3.68,9,3.45,14.25,1.6.6-.21.34-1.18-.27-1-5.48,1.94-10.49,1.82-14.69-2.67-3.23-3.46-4.82-8-6.35-12.33-.22-.61-1.18-.35-1,.26Z"/><path class="cls-7" d="M45.69,43.33c.4-.36,1.35-1.09,1.81-.4.35.53,1.22,0,.86-.51-.89-1.32-2.43-.63-3.38.2-.48.43.23,1.13.71.71Z"/><path class="cls-7" d="M58.33,54.93A6.53,6.53,0,0,1,57.76,58c-.26.58.6,1.09.86.5a7.49,7.49,0,0,0,.71-3.61c0-.64-1-.64-1,0Z"/><path class="cls-7" d="M62.7,56.09a2,2,0,0,1,.69,0,.5.5,0,0,0,.27-1,2.6,2.6,0,0,0-1-.09c-.63.07-.64,1.07,0,1Z"/><path class="cls-7" d="M65.31,56.67l-.08-.17.35-.35.16.09c.06-.64-.94-.63-1,0a.86.86,0,0,0,1.05.89c.68-.19.5-1,0-1.32s-1,.52-.51.86Z"/><path class="cls-7" d="M63.22,57.69l.05,0,.57-.73-.77-.23a.5.5,0,0,0-.26,1l.76.22c.39.12.82-.37.56-.73a1.08,1.08,0,0,0-1.42-.39c-.59.25-.08,1.11.51.86Z"/><path class="cls-7" d="M54.84,53.23l.32,0a.51.51,0,0,0,.5-.5v-.45a.5.5,0,0,0-.36-.48.94.94,0,0,0-1.1.26.7.7,0,0,0,.12.92c.49.4,1.2-.3.7-.71v.5l-.37-.49v.45l.5-.5-.32,0c-.64,0-.65,1,0,1Z"/><path class="cls-7" d="M52.2,50.12a1.64,1.64,0,0,1-.24-.21.31.31,0,0,1-.05-.12c0-.15-.06-.09-.14.17l-.39,0c-.23-.08.07.16.14.28a2.07,2.07,0,0,1,.22.51c.2.61,1.16.35,1-.26s-.75-1.91-1.52-1.41,0,1.56.5,1.85,1.07-.55.51-.86Z"/><path class="cls-7" d="M53.91,55.3a1.47,1.47,0,0,0,.82,1,.52.52,0,0,0,.74-.57,1.5,1.5,0,0,0-1.15-1.2c-.62-.14-.89.82-.26,1a.53.53,0,0,1,.44.51l.74-.57a.54.54,0,0,1-.37-.35c-.19-.61-1.16-.35-1,.27Z"/><path class="cls-7" d="M66.42,19.26c1.31-2.21,2.24-4.7,1-7.18-.8-1.67-2.88-3.34-4.73-2.06a2.19,2.19,0,0,0,.2,3.69c1.44.71,3-.77,2-2.13-.38-.5-1.25,0-.86.51.11-1.57.64-1.86,1.6-.86l.54.62A4.86,4.86,0,0,1,67,14.48a8.12,8.12,0,0,1-1.49,4.28.5.5,0,0,0,.87.5Z"/><path class="cls-7" d="M66.5,19.51A8,8,0,0,1,69.74,17a3.52,3.52,0,0,1,2.81.08c2.13,1.29-.94,3.61-1,1.58a.5.5,0,0,0,1,0c0-1.79-2.42-1.6-2.72,0-.41,2.18,2.53,2.32,3.76,1.33,1.64-1.32.37-3.59-1.32-4.06-2.57-.71-5,1.05-6.52,2.91-.41.49.29,1.2.71.71Z"/></g><g id="Stripe_copy_4" data-name="Stripe copy 4"><polygon class="cls-7" points="57.14 14.5 58.54 19.86 61.49 15.42 57.14 14.5"/><polygon class="cls-7" points="70.82 19.8 71.05 25.38 74.41 22.89 70.82 19.8"/><polygon class="cls-7" points="84.62 41.03 78.07 41.95 85.84 45.88 84.62 41.03"/><path class="cls-7" d="M22.16,20.83s6.91-3.06,8.51-3.27L36.93,27Z"/><polygon class="cls-7" points="34.45 16.31 38.71 15.17 39.41 19.59 34.45 16.31"/><path class="cls-7" d="M20.33,29.12s.3,13.08,4.58,17.63l19.31-13.6Z"/><polygon class="cls-7" points="31.43 65.82 41.51 71.08 30.23 71.04 31.43 65.82"/><polygon class="cls-7" points="29.35 75.16 28.61 80.25 43.02 79.04 29.35 75.16"/><polygon class="cls-7" points="27.87 84.79 27.24 91.49 43.12 89.82 27.87 84.79"/><polygon class="cls-7" points="27.05 98.74 27.05 101.86 32.67 100.3 27.05 98.74"/><polygon class="cls-7" points="62.94 70.89 66.78 70.89 64.86 73.17 62.94 70.89"/><polygon class="cls-7" points="71.34 70.89 75.25 70.89 72.41 74.45 71.34 70.89"/><polygon class="cls-7" points="16.36 72.28 11.25 75.31 16.02 77.1 16.36 72.28"/><polygon class="cls-7" points="15.13 81.34 12.56 80.53 14.19 84.33 15.13 81.34"/><polygon class="cls-7" points="12.88 90.42 10.11 92.84 12.88 92.84 12.88 90.42"/><polygon class="cls-7" points="14.68 100.05 14.11 102.33 16.67 102.33 14.68 100.05"/><path class="cls-7" d="M86.38,48.86l1.18,9.9a69.54,69.54,0,0,1-12.75,7.45s7.62-8.5,2.72-15.51Z"/><path class="cls-7" d="M6.52,59a12.81,12.81,0,0,1,4.57,1.86L6.64,65.49Z"/><polygon class="cls-7" points="17.67 64.42 19.73 62 19.57 64.55 17.67 64.42"/><path class="cls-7" d="M9.44,50.17s4-.38,5.15-2.18c0,0-1.62,4.07-3.8,5.44Z"/><polygon class="cls-7" points="12.21 56.76 15.14 54.57 13.4 59.47 12.21 56.76"/><polygon class="cls-7" points="35.81 113.81 37.95 110.9 33.81 112.68 35.81 113.81"/></g><g id="headphone_copy_4" data-name="headphone copy 4"><path class="cls-2" d="M36.61,6.92s10.24,2.18,12.1,4.73c0,0-1.31,9-4.22,10.42,0,0-9.16-3.29-10.09-5.09C34.4,17,33.14,16,36.61,6.92Z"/><path class="cls-8" d="M42.59,8.56,45.81,0s32,3.81,39.12,15.61c0,0-.33,3.82-1.8,6l-1.94-.76s2-3.62,1.47-4.61c0,0-12-11.25-35.38-13.52,0,0-2.3,3.64-2.38,6.68Z"/><path class="cls-9" d="M37.24,16a4,4,0,0,1,1.09-3.34c.88-.94-.53-2.36-1.42-1.42a6.13,6.13,0,0,0-1.59,5.29c.19,1.27,2.12.73,1.92-.53Z"/><path class="cls-9" d="M38.92,10.64a1,1,0,0,0,0-2,1,1,0,0,0,0,2Z"/><path class="cls-9" d="M77.72,23.89A8.82,8.82,0,0,1,79,21.71a1,1,0,0,0,0-1.41,1,1,0,0,0-1.42,0,12,12,0,0,0-1.78,3.06,1,1,0,0,0,.7,1.23,1,1,0,0,0,1.23-.7Z"/></g><g id="DJ_Table" data-name="DJ Table"><path class="cls-8" d="M98.09,104.83v22.43a1,1,0,0,0,2,0V104.83a1,1,0,0,0-2,0Z"/><path class="cls-8" d="M41.75,113.87v21.91a1,1,0,0,0,2,0V113.87a1,1,0,0,0-2,0Z"/><path class="cls-8" d="M32.81,98.74V129a1,1,0,0,0,2,0V98.74a1,1,0,0,0-2,0Z"/><path class="cls-8" d="M99.09,128.78a1,1,0,0,0,0-2,1,1,0,0,0,0,2Z"/><path class="cls-8" d="M99.26,131.35c2.58,0,2.58-4,0-4s-2.58,4,0,4Z"/><path class="cls-8" d="M90.05,126.48c2.57,0,2.58-4,0-4s-2.58,4,0,4Z"/><path class="cls-8" d="M42.93,136.74c2.57,0,2.58-4,0-4s-2.58,4,0,4Z"/><path class="cls-8" d="M33.89,130.13c2.57,0,2.58-4,0-4s-2.58,4,0,4Z"/><path class="cls-8" d="M89.28,100.83v22.43a1,1,0,0,0,2,0V100.83a1,1,0,0,0-2,0Z"/><polygon class="cls-5" points="30.75 88.43 40.36 112.05 102.73 101.14 91.82 81.92 30.75 88.43"/><polygon class="cls-8" points="30.75 93.66 38.57 114.58 102.73 104.12 102.73 101.14 40.36 112.05 30.75 88.43 30.75 93.66"/><ellipse class="cls-10" cx="56.66" cy="96.77" rx="17.56" ry="9.42" transform="translate(-7.54 4.83) rotate(-4.58)"/><ellipse class="cls-11" cx="56.48" cy="95.75" rx="6.86" ry="3.84"/><path class="cls-12" d="M89.65,88.3l3.4,7.11"/><path class="cls-10" d="M88.79,88.8l3.4,7.11c.56,1.16,2.28.15,1.73-1l-3.41-7.11c-.55-1.16-2.28-.15-1.72,1Z"/><path class="cls-12" d="M83.62,89.05,87,96.16"/><path class="cls-10" d="M82.76,89.55l3.4,7.11c.56,1.16,2.28.15,1.73-1l-3.4-7.11c-.56-1.16-2.28-.15-1.73,1Z"/><path class="cls-12" d="M76.72,89.87,80.12,97"/><path class="cls-10" d="M75.85,90.38l3.41,7.11c.55,1.16,2.28.14,1.72-1l-3.4-7.11c-.55-1.16-2.28-.15-1.73,1Z"/><path class="cls-12" d="M81.48,102.86c2.57,0,2.57-4,0-4s-2.58,4,0,4Z"/><path class="cls-13" d="M88.34,101.93c2.57,0,2.57-4,0-4s-2.58,4,0,4Z"/><path class="cls-14" d="M94.5,101c2.57,0,2.58-4,0-4s-2.58,4,0,4Z"/><polygon class="cls-15" points="41.13 107.49 43.8 108.07 48.34 102.84 49.62 102.84 51.83 99.93 48.34 99 45.89 100.86 46.48 102.03 41.13 107.49"/></g><g id="hand_copy_4" data-name="hand copy 4"><path class="cls-1" d="M72.31,83.55l8.26-.93S77.92,103.24,68.5,94.73c0,0-.69-.4-.69-2.73Z"/></g></g></g></g></g></svg>