<svg xmlns="http://www.w3.org/2000/svg" viewBox="0 0 129.67 121.12"><defs><style>.cls-1{fill:#e6d99c;}.cls-2{fill:#f549a3;}.cls-3{fill:#541b3d;}.cls-4{fill:#7ae5cc;stroke:#7ae5cc;}.cls-11,.cls-14,.cls-15,.cls-4,.cls-6,.cls-8{stroke-miterlimit:10;}.cls-5{fill:#f7f7f7;}.cls-14,.cls-6{fill:#acd4bc;}.cls-6{stroke:#4d0768;}.cls-7{fill:#e1ca77;}.cls-8{fill:#e3c639;stroke:#e1ca77;stroke-width:3px;}.cls-9{fill:#b6a88e;}.cls-10{fill:#c1a736;}.cls-11{fill:#dbcfa9;stroke:#ead3af;}.cls-12{fill:#8fb9c7;}.cls-13,.cls-15{fill:#c4f2e8;}.cls-14{stroke:#acd4bc;}.cls-15{stroke:#c4f2e8;}</style></defs><title>J3</title><g id="Layer_2" data-name="Layer 2"><g id="DESIGNmain"><g id="J_Pop_copy" data-name="J_Pop copy"><g id="J_Octopus_copy_3" data-name="J_Octopus copy 3"><g id="Octopus"><g id="Stick"><path class="cls-1" d="M1,25.58a1,1,0,0,0,0-2,1,1,0,0,0,0,2Z"/><path class="cls-1" d="M1.77,25.64l10.11,5.29.5-.86-5.8-3c-.57-.3-1.08.56-.5.86l5.8,3c.57.3,1.08-.56.5-.86L2.27,24.77c-.57-.3-1.08.57-.5.87Z"/><path class="cls-1" d="M16.23,32.51l6,3.17.51-.86L19.31,33c-.57-.3-1.08.56-.51.86l3.47,1.82c.57.3,1.08-.57.51-.86l-6.05-3.17c-.57-.3-1.07.57-.5.86Z"/></g><g id="Stick-2" data-name="Stick"><path class="cls-1" d="M21.57,4.27a1,1,0,0,0,0-2,1,1,0,0,0,0,2Z"/><path class="cls-1" d="M21.79,4.56l6.65,9.28.87-.51L25.49,8c-.37-.52-1.24,0-.86.5l3.81,5.33c.37.52,1.24,0,.87-.51L22.66,4.05c-.38-.52-1.24,0-.87.51Z"/><path class="cls-1" d="M31.61,17.21l4,5.54.87-.5-2.28-3.18c-.37-.52-1.24,0-.87.5l2.28,3.18c.38.52,1.24,0,.87-.5l-4-5.55c-.37-.52-1.23,0-.86.51Z"/></g><g id="Stick-3" data-name="Stick"><path class="cls-1" d="M110.51,7.86a1,1,0,0,0,0-2,1,1,0,0,0,0,2Z"/><path class="cls-1" d="M109.52,7.7l-4.61,10.44.86.51,2.65-6c.26-.59-.6-1.1-.86-.51l-2.65,6c-.26.59.6,1.1.86.51l4.62-10.44c.26-.59-.61-1.1-.87-.51Z"/><path class="cls-1" d="M103.62,22.58l-2.76,6.24.86.51,1.58-3.58c.26-.59-.6-1.09-.86-.51l-1.58,3.58c-.26.59.6,1.1.86.51l2.76-6.24c.26-.58-.6-1.09-.86-.51Z"/></g><g id="Body"><path class="cls-2" d="M67,50.32s.75-3.2-1-5.28c0,0-18.06-19.12-4.57-33.69,0,0,14.17-11.2,21.18,7.83,0,0,4.18,16-8.09,25.5,0,0-3,3.37-1.76,5,0,0,13.63,2.56,14.71-19.16,0,0,6.61-21.72,19.29-10.93,0,0,1.26.25,1.16,3.41,0,0-2.27,4.65-7-1.78,0,0-5.84-3.27-8.12,13.17,0,0,2.38,14.15-3.66,20.09s-.5,3-.5,3,14.35-11.68,25.24-9c0,0,8.81,1.76,11.29-15.3,0,0,.79-4.79-1.49-5.78,0,0-.69-4.65,3.17-1.59,0,0,3.56,2.58,2.77,8.62,0,0-2.38,20-15.54,18.21,0,0-14.75-3-23,9.4,0,0-4.34,4.8.41,2.12s7.08-1,9-3.49l2.92-3.89s4.88-7,2.55,2.9c0,0-5.44,9.71-14.25,8.43L86.8,76.14s10.29-4,8.32,21.88c0,0-.9,13.86,10,13.86,0,0,5.54,2-1.68,3.46,0,0-14.36.65-14.75-20.19,0,0,1.59-15.94-8.11-18.51l-14,5.64-16,18.21s-13.26,8.91-18.7,8.42c0,0-3.86-.4-2.58-2.87,0,0,7.53-1,12.48-6.44L47.9,86.83l-2.18-.29,4.06-12.47.1-5,1.59-6.63-6.24.39s-12-10.29-14.35-18.9c0,0-3-19.7-14-13.07,0,0-1.09,1-.59,1.78l3.17,1.59s-5.84,4.25-7.33-4c0,0,1.19-9.4,12.67-4.26,0,0,8.31,2.58,11.28,13.86,0,0,5.25,16.83,16.53,15.64,0,0-12.76-8.12-12-21.58,0,0,3.76-20.78-9.21-16.73l3.07,4.36s-10.39.49-5.74-8c0,0,3.56-5,13.26,2.18,0,0,5.35,2.45,5,18.51C47.11,34.18,53.93,58.35,67,50.32Z"/></g><path class="cls-3" d="M70.14,32.49c.43-.18,1.17-.52,1.51,0,.52.72-.55.63-.89.55a.25.25,0,0,0-.19.46.57.57,0,0,1-.33,1,.68.68,0,0,1-.59-.94.25.25,0,0,0-.49-.13A1.18,1.18,0,0,0,70.56,35,1.07,1.07,0,0,0,70.82,33l-.19.46c.65.14,1.79.1,1.65-.87-.18-1.15-1.52-.94-2.27-.62-.29.12-.17.6.13.48Z"/><g id="Glasses"><path id="Glasses-2" data-name="Glasses" class="cls-4" d="M57.23,21.84V20.37s8.24-.64,10.63.34a15.27,15.27,0,0,0,4.54,0,49.8,49.8,0,0,1,10-.59v1.68s-.79,0-.87.53c0,0,1,5-5.32,5,0,0-4.08,1-5.74-5H69.42s-.11,5.06-5.89,5.08c0,0-4.68.77-5.55-5C58,22.48,58.21,21.61,57.23,21.84Z"/><path class="cls-5" d="M59.23,21.61s-1.17,4.91,4.07,5.21c0,0,3.68.46,4.56-3,0,0,.5-3.32-3.91-3.09C64,20.71,59.53,20.25,59.23,21.61Z"/><path class="cls-5" d="M80.64,21.78s1.17,4.9-4.08,5.21c0,0-3.67.45-4.55-3,0,0-.5-3.33,3.91-3.1C75.92,20.87,80.33,20.42,80.64,21.78Z"/></g></g><g id="Drump1_copy_4" data-name="Drump1 copy 4"><g id="Big_drum" data-name="Big drum"><circle id="Big_drum-2" data-name="Big drum" class="cls-6" cx="67.01" cy="100.22" r="20.4"/><path class="cls-7" d="M85.29,93.5a1,1,0,0,0,0-2,1,1,0,0,0,0,2Z"/><path class="cls-7" d="M85.29,109.08a1,1,0,0,0,0-2,1,1,0,0,0,0,2Z"/><path class="cls-7" d="M74.16,120a1,1,0,0,0,0-2,1,1,0,0,0,0,2Z"/><path class="cls-7" d="M58.55,120.45a1,1,0,0,0,0-2,1,1,0,0,0,0,2Z"/><path class="cls-7" d="M47.46,109.52a1,1,0,0,0,0-2,1,1,0,0,0,0,2Z"/><path class="cls-7" d="M74.27,82.55a1,1,0,0,0,0-2,1,1,0,0,0,0,2Z"/><path class="cls-7" d="M53.51,85.25a1,1,0,0,0,0-2,1,1,0,0,0,0,2Z"/></g><g id="yellow2"><ellipse class="cls-8" cx="101.05" cy="51.55" rx="14.9" ry="2.61" transform="matrix(0.95, -0.31, 0.31, 0.95, -10.98, 33.75)"/><g id="Foot"><path class="cls-9" d="M101,53.24v53.44a.5.5,0,0,0,1,0V53.24a.5.5,0,0,0-1,0Z"/><path class="cls-9" d="M91.85,116.33l10-8.77c.48-.43-.23-1.13-.71-.71l-10,8.77c-.49.43.22,1.14.7.71Z"/><path class="cls-9" d="M110.53,116.47,102,106.33c-.41-.49-1.12.22-.71.71l8.49,10.13c.41.5,1.12-.21.71-.7Z"/><path class="cls-9" d="M103.07,120.56l-1.1-13c0-.64-1-.65-1,0l1.1,13c.05.64,1.05.64,1,0Z"/></g><path class="cls-10" d="M101.32,53.47a1,1,0,0,0,0-2,1,1,0,0,0,0,2Z"/></g><g id="yellow1"><ellipse class="cls-8" cx="27.33" cy="48.33" rx="2.68" ry="14.98" transform="translate(-28.01 52.77) rotate(-65.1)"/><g id="Foot-2" data-name="Foot"><path class="cls-9" d="M27.26,50.08v55.17a.5.5,0,0,0,1,0V50.08a.5.5,0,0,0-1,0Z"/><path class="cls-9" d="M18.14,115.2l10-9.06c.48-.43-.23-1.14-.71-.7l-10,9c-.48.44.23,1.14.71.71Z"/><path class="cls-9" d="M36.81,115.36,28.33,104.9c-.41-.5-1.11.21-.71.7l8.48,10.47c.41.5,1.11-.21.71-.71Z"/><path class="cls-9" d="M29.35,119.58l-1.09-13.43c-.05-.63-1.05-.64-1,0l1.09,13.43c0,.64,1,.64,1,0Z"/></g><path class="cls-10" d="M27.6,50.27a1,1,0,0,0,0-2,1,1,0,0,0,0,2Z"/></g><g id="Drum1"><ellipse class="cls-11" cx="36.8" cy="91.9" rx="10.32" ry="5.2" transform="translate(-20.94 11.49) rotate(-13.86)"/><path class="cls-12" d="M25.19,73.38l2.35,20.51s11.83,5.58,18.32-4.4L43.78,67.15Z"/><path class="cls-13" d="M37.6,95.15a13.86,13.86,0,0,0,8.26-5.66L43.72,67.15l-8,2.69Z"/><ellipse class="cls-11" cx="33.71" cy="70.45" rx="11.32" ry="2.4" transform="translate(-10.71 6.21) rotate(-9.09)"/></g><g id="Drum4"><ellipse class="cls-11" cx="94.46" cy="75.91" rx="2.57" ry="10.3" transform="matrix(0.03, -1, 1, 0.03, 15.35, 167.71)"/><path class="cls-12" d="M87,67.15,85,75.64s10.3,3.91,18.73.87l2.71-9.18Z"/><path class="cls-13" d="M94.47,77.58a27,27,0,0,0,9.23-1.07l2.66-9.19L98,67.25Z"/><ellipse class="cls-11" cx="96.09" cy="67.63" rx="1.18" ry="10.04" transform="translate(25.12 161.28) rotate(-87.98)"/></g><g id="Drum2"><ellipse class="cls-11" cx="51.49" cy="61.04" rx="4.48" ry="10.78" transform="translate(-14.28 106.33) rotate(-84.4)"/><path class="cls-12" d="M40.75,74.73l.89-14.91s12-4.87,19.54,1.82l-.47,16.2Z"/><path class="cls-13" d="M52.09,58.18s5.4.29,9.09,3.46l-.52,16.2L52.09,76.5Z"/><ellipse class="cls-11" cx="49.84" cy="77.54" rx="4.12" ry="10.51" transform="translate(-32.19 119.58) rotate(-84.4)"/></g><g id="Drum3"><ellipse class="cls-11" cx="75.3" cy="62.9" rx="11.61" ry="4.83" transform="translate(-4.81 6.25) rotate(-4.61)"/><path class="cls-12" d="M66.52,79.48l-1.91-16S76.39,56,85.69,61.7L88.29,79Z"/><path class="cls-13" d="M75.38,59.76S81.17,59,85.69,61.7L88.23,79l-9.35.21Z"/><ellipse class="cls-11" cx="76.7" cy="80.72" rx="11.32" ry="4.44" transform="translate(-6.24 6.42) rotate(-4.61)"/></g></g><g id="Bow"><path class="cls-14" d="M74.74,8.75s7.37-6,11.14-3.27c0,0,1.93,2.19-.45,5,0,0,3.79,7.79-4.4,6.25C81,16.75,75.91,15.5,74.74,8.75Z"/><path class="cls-14" d="M73.23,8.6S69.8-.14,65.31.54c0,0-2.66,1-2,4.63,0,0-6.89,5.1.79,7.56C64.13,12.73,69.07,14,73.23,8.6Z"/><path class="cls-15" d="M73.37,7.61s1.36-.33,1.53.29a1.62,1.62,0,0,1-.3,1.6.88.88,0,0,1-1.55.06C72.57,8.93,72.86,8.59,73.37,7.61Z"/></g></g></g></g></g></svg>