<svg xmlns="http://www.w3.org/2000/svg" viewBox="0 0 102.73 136.74"><defs><style>.cls-1{fill:#fc1a9b;}.cls-2{fill:#c4f2e8;}.cls-3{fill:#f4d7e8;}.cls-4{fill:#fdeec7;}.cls-5{fill:#685054;}.cls-6{fill:#f549a3;}.cls-7{fill:#e24040;}.cls-8{fill:#f67b24;}.cls-9{fill:#820659;}.cls-10{fill:#492c3b;}.cls-11{fill:#190f17;}.cls-12{fill:#630c3f;}.cls-13{fill:#9eb93a;}.cls-14{fill:#d62e60;}.cls-15{fill:#fe641a;}.cls-16{fill:#ab8b7f;}</style></defs><title>J4</title><g id="Layer_2" data-name="Layer 2"><g id="DESIGNmain"><g id="J_Pop_copy" data-name="J_Pop copy"><g id="J_Tiger_copy" data-name="J_Tiger copy"><g id="Ear"><path class="cls-1" d="M83.83,37.07s7.3-5.08,6.29-11.19c0,0-8.06-4.06-14.07.76C76.05,26.64,77.27,35.79,83.83,37.07Z"/><path class="cls-2" d="M76.59,19.31s9.67,2.84,11.13,5c0,0-2.53,6.84-5.56,7.63,0,0-8.47-3.58-9.11-5.08C73.05,26.89,72,26,76.59,19.31Z"/><path class="cls-1" d="M53.79,14.86S54,6,48.4,3.21c0,0-8,4.15-7.62,11.84C40.78,15.05,48.91,19.42,53.79,14.86Z"/></g><path id="Body" class="cls-1" d="M32.34,56.9s-16.18-13.39-11-35.71c0,0,61.36-31.61,66.19,37.57,0,0-17.29,13.2-30.68,10.78l.29,1.39H81.71s0,28.06-11.06,25.55a3.94,3.94,0,0,1-3.45-4.23s7.21-11,7.92-15.91L58.73,74.53s19.48,40.27-6.34,41.68l-2,7.92s17-7,13,1.28H47.92l-1.28-8.31-1.4,9.08H29.39s-2.81-9.08,12.52-1.28l-1.15-9.71A15.48,15.48,0,0,1,29,107.65S7.8,108.41,7.67,91.42c0,0,.38-5.88,2.3-20.45,0,0-7,1.53-10-3.58,0,0,.13-8.56,6.52-8.43,0,0,16.61,1.92,6.77,28,0,0-4.22,19.3,13.93,18.66,0,0-1.66-16.23,4.22-40.25L15.59,64.28s-14.22-30.37-11-32.8,5.13-1.66,7.69-.38c0,0,5.49,10,8.56,29.52L32,62.15Z"/><g id="Mouth_copy_4" data-name="Mouth copy 4"><path class="cls-3" d="M43.44,38.39S28.7,55.14,56.73,66.2c0,0,26.4,4.5,15.66-19C72.39,47.22,63.71,37.57,43.44,38.39Z"/><path class="cls-3" d="M49.18,69l8.09.79s15,34.62,6.57,40.54C63.84,110.29,44.61,104.9,49.18,69Z"/></g><g id="Layer_14_copy_4" data-name="Layer 14 copy 4"><circle class="cls-4" cx="49.76" cy="25.64" r="5.4"/><circle class="cls-4" cx="74.59" cy="35.61" r="4.58"/><g id="Layer_15_copy_4" data-name="Layer 15 copy 4"><ellipse class="cls-5" cx="50.3" cy="28.58" rx="3.46" ry="2.45" transform="translate(-3.41 7.09) rotate(-7.8)"/><ellipse class="cls-5" cx="72.93" cy="37.49" rx="2.26" ry="3.2" transform="translate(-3.06 68.31) rotate(-49.28)"/></g></g><g id="Nose"><polygon class="cls-6" points="49.18 38.39 72.39 47.22 58.84 55.15 49.18 38.39"/><polygon id="Nose1" class="cls-7" points="65.72 18.98 49.18 38.39 72.39 47.22 65.72 18.98"/></g><g id="Line_details_copy_4" data-name="Line details copy 4"><path class="cls-8" d="M46,42.72c1.77,5,3.67,10.45,7.94,14s8.88,3.38,14,1.56c.31-.11.18-.59-.13-.48-5.57,2-10.68,1.82-14.94-2.74-3.26-3.49-4.86-8-6.42-12.44-.1-.3-.58-.17-.48.14Z"/><path class="cls-8" d="M45.51,43.15c.55-.48,1.62-1.21,2.2-.35.18.27.61,0,.43-.25-.78-1.17-2.16-.47-3,.25-.24.21.11.56.35.35Z"/><path class="cls-8" d="M58.58,54.93a6.87,6.87,0,0,1-.6,3.23c-.14.29.29.55.43.25a7.42,7.42,0,0,0,.67-3.48c0-.32-.52-.32-.5,0Z"/><path class="cls-8" d="M62.7,55.84a2.18,2.18,0,0,1,.76.06.25.25,0,0,0,.13-.48,2.43,2.43,0,0,0-.89-.08c-.32,0-.32.54,0,.5Z"/><path class="cls-8" d="M65.44,56.46l0,.11.18-.18-.16-.15c0-.32-.47-.32-.5,0a.61.61,0,0,0,.74.65c.44-.14.26-.68,0-.86s-.52.25-.25.43Z"/><path class="cls-8" d="M63.09,57.48l.4.11.28-.36L63,57a.25.25,0,0,0-.14.48l.77.23c.19.06.41-.19.28-.37a.84.84,0,0,0-1.08-.3c-.29.13,0,.56.25.44Z"/><path class="cls-8" d="M54.84,53l.32,0a.25.25,0,0,0,.25-.25v-.45a.25.25,0,0,0-.18-.24c-.27-.07-.63-.12-.81.15a.46.46,0,0,0,.07.61c.25.2.61-.15.36-.35l.25.08-.19-.25v.45l.25-.25-.32,0c-.32,0-.32.51,0,.5Z"/><path class="cls-8" d="M52.07,50.34c-.2-.12-.24-.26-.38-.42l0-.19c-.21,0-.24,0-.11.15a3.5,3.5,0,0,0,.23.35,2.28,2.28,0,0,1,.21.51c.1.3.58.17.49-.14s-.6-1.64-1.15-1.25.13,1.21.5,1.42.53-.28.25-.43Z"/><path class="cls-8" d="M54.15,55.23a1.23,1.23,0,0,0,.71.8.26.26,0,0,0,.37-.28,1.25,1.25,0,0,0-1-1c-.32-.07-.45.41-.14.48a.75.75,0,0,1,.62.68l.37-.28a.79.79,0,0,1-.48-.5c-.1-.31-.58-.17-.48.13Z"/><path class="cls-6" d="M66,19a8.91,8.91,0,0,0,1.56-4.25,5.3,5.3,0,0,0-.92-3.16,3.46,3.46,0,0,0-1.83-1.43,2.07,2.07,0,0,0-2.15.6,1.73,1.73,0,0,0,.2,2.28,1.31,1.31,0,0,0,1.53.19.89.89,0,0,0,.11-1.4"/><path class="cls-6" d="M66.2,19.14c1.27-2.13,2.19-4.54,1-6.94-.73-1.52-2.68-3.19-4.4-2a2,2,0,0,0,.21,3.26c1.24.59,2.5-.63,1.63-1.78-.19-.25-.62,0-.43.25,0-1.71.49-2,1.57-.9l.58.67a5.07,5.07,0,0,1,.88,2.75,8.35,8.35,0,0,1-1.52,4.4.25.25,0,0,0,.43.26Z"/><path class="cls-6" d="M66.14,19.16A9.23,9.23,0,0,1,68.62,17a4.56,4.56,0,0,1,1-.49,4.82,4.82,0,0,1,1-.22,3.39,3.39,0,0,1,2.56.6,1.85,1.85,0,0,1,.43,2.41,2.39,2.39,0,0,1-1.71.78,2.1,2.1,0,0,1-.75,0,1.13,1.13,0,0,1-.07-2.15.87.87,0,0,1,.77.06.61.61,0,0,1,.25.7"/><path class="cls-6" d="M66.32,19.33a8.25,8.25,0,0,1,3.36-2.6,3.74,3.74,0,0,1,3,.1c2.13,1.28-.8,4.49-.83,1.8a.25.25,0,0,0,.5,0c0-1.48-1.91-1.27-2.22,0-.48,2,2.33,2,3.36,1.13,1.47-1.2.25-3.2-1.23-3.62-2.48-.7-4.79,1.06-6.28,2.85-.21.25.14.6.35.35Z"/></g><g id="Stripe_copy_4" data-name="Stripe copy 4"><polygon class="cls-9" points="57.14 14.5 58.54 19.86 61.49 15.42 57.14 14.5"/><polygon class="cls-9" points="70.82 19.8 71.05 25.38 74.41 22.89 70.82 19.8"/><polygon class="cls-9" points="84.62 41.03 78.07 41.95 85.84 45.88 84.62 41.03"/><path class="cls-9" d="M22.16,20.83s6.91-3.06,8.51-3.27L36.93,27Z"/><polygon class="cls-9" points="34.45 16.31 38.71 15.17 39.41 19.59 34.45 16.31"/><path class="cls-9" d="M20.33,29.12s.3,13.08,4.58,17.63l19.31-13.6Z"/><polygon class="cls-9" points="31.43 65.82 41.51 71.08 30.23 71.04 31.43 65.82"/><polygon class="cls-9" points="29.35 75.16 28.61 80.25 43.02 79.04 29.35 75.16"/><polygon class="cls-9" points="27.87 84.79 27.24 91.49 43.12 89.82 27.87 84.79"/><polygon class="cls-9" points="27.05 98.74 27.05 101.86 32.67 100.3 27.05 98.74"/><polygon class="cls-9" points="62.94 70.89 66.78 70.89 64.86 73.17 62.94 70.89"/><polygon class="cls-9" points="71.34 70.89 75.25 70.89 72.41 74.45 71.34 70.89"/><polygon class="cls-9" points="16.36 72.28 11.25 75.31 16.02 77.1 16.36 72.28"/><polygon class="cls-9" points="15.13 81.34 12.56 80.53 14.19 84.33 15.13 81.34"/><polygon class="cls-9" points="12.88 90.42 10.11 92.84 12.88 92.84 12.88 90.42"/><polygon class="cls-9" points="14.68 100.05 14.11 102.33 16.67 102.33 14.68 100.05"/><path class="cls-9" d="M86.38,48.86l1.18,9.9a69.54,69.54,0,0,1-12.75,7.45s7.62-8.5,2.72-15.51Z"/><path class="cls-9" d="M6.52,59a12.81,12.81,0,0,1,4.57,1.86L6.64,65.49Z"/><polygon class="cls-9" points="17.67 64.42 19.73 62 19.57 64.55 17.67 64.42"/><path class="cls-9" d="M9.44,50.17s4-.38,5.15-2.18c0,0-1.62,4.07-3.8,5.44Z"/><polygon class="cls-9" points="12.21 56.76 15.14 54.57 13.4 59.47 12.21 56.76"/><polygon class="cls-9" points="35.81 113.81 37.95 110.9 33.81 112.68 35.81 113.81"/></g><g id="headphone_copy_4" data-name="headphone copy 4"><path class="cls-2" d="M36.61,6.92s10.24,2.18,12.1,4.73c0,0-1.31,9-4.22,10.42,0,0-9.16-3.29-10.09-5.09C34.4,17,33.14,16,36.61,6.92Z"/><path class="cls-10" d="M42.59,8.56,45.81,0s32,3.81,39.12,15.61c0,0-.33,3.82-1.8,6l-1.94-.76s2-3.62,1.47-4.61c0,0-12-11.25-35.38-13.52,0,0-2.3,3.64-2.38,6.68Z"/></g><g id="DJ_Table" data-name="DJ Table"><path class="cls-10" d="M98.09,104.83v22.43a1,1,0,0,0,2,0V104.83a1,1,0,0,0-2,0Z"/><path class="cls-10" d="M41.75,113.87v21.91a1,1,0,0,0,2,0V113.87a1,1,0,0,0-2,0Z"/><path class="cls-10" d="M32.81,98.74V129a1,1,0,0,0,2,0V98.74a1,1,0,0,0-2,0Z"/><path class="cls-10" d="M99.09,128.78a1,1,0,0,0,0-2,1,1,0,0,0,0,2Z"/><path class="cls-10" d="M99.26,131.35c2.58,0,2.58-4,0-4s-2.58,4,0,4Z"/><path class="cls-10" d="M90.05,126.48c2.57,0,2.58-4,0-4s-2.58,4,0,4Z"/><path class="cls-10" d="M42.93,136.74c2.57,0,2.58-4,0-4s-2.58,4,0,4Z"/><path class="cls-10" d="M33.89,130.13c2.57,0,2.58-4,0-4s-2.58,4,0,4Z"/><path class="cls-10" d="M89.28,100.83v22.43a1,1,0,0,0,2,0V100.83a1,1,0,0,0-2,0Z"/><polygon class="cls-5" points="30.75 88.43 40.36 112.05 102.73 101.14 91.82 81.92 30.75 88.43"/><polygon class="cls-10" points="30.75 93.66 38.57 114.58 102.73 104.12 102.73 101.14 40.36 112.05 30.75 88.43 30.75 93.66"/><ellipse class="cls-11" cx="56.66" cy="96.77" rx="17.56" ry="9.42" transform="matrix(1, -0.08, 0.08, 1, -7.54, 4.83)"/><ellipse class="cls-12" cx="56.48" cy="95.75" rx="6.86" ry="3.84"/><path class="cls-13" d="M89.65,88.3l3.4,7.11"/><path class="cls-11" d="M88.79,88.8l3.4,7.11c.56,1.16,2.28.15,1.73-1l-3.41-7.11c-.55-1.16-2.28-.15-1.72,1Z"/><path class="cls-13" d="M83.62,89.05,87,96.16"/><path class="cls-11" d="M82.76,89.55l3.4,7.11c.56,1.16,2.28.15,1.73-1l-3.4-7.11c-.56-1.16-2.28-.15-1.73,1Z"/><path class="cls-13" d="M76.72,89.87,80.12,97"/><path class="cls-11" d="M75.85,90.38l3.41,7.11c.55,1.16,2.28.14,1.72-1l-3.4-7.11c-.55-1.16-2.28-.15-1.73,1Z"/><path class="cls-13" d="M81.48,102.86c2.57,0,2.57-4,0-4s-2.58,4,0,4Z"/><path class="cls-14" d="M88.34,101.93c2.57,0,2.57-4,0-4s-2.58,4,0,4Z"/><path class="cls-15" d="M94.5,101c2.57,0,2.58-4,0-4s-2.58,4,0,4Z"/><polygon class="cls-16" points="41.13 107.49 43.8 108.07 48.34 102.84 49.62 102.84 51.83 99.93 48.34 99 45.89 100.86 46.48 102.03 41.13 107.49"/></g><g id="hand_copy_4" data-name="hand copy 4"><path class="cls-1" d="M72.31,83.55l8.26-.93S77.92,103.24,68.5,94.73c0,0-.69-.4-.69-2.73Z"/></g></g></g></g></g></svg>