<svg xmlns="http://www.w3.org/2000/svg" viewBox="0 0 117.51 134.87"><defs><style>.cls-1{fill:#e24040;}.cls-2{fill:#eda4a4;}.cls-3{fill:#fc9ac9;}.cls-4,.cls-6{fill:#190f17;}.cls-5{fill:#070908;}.cls-6{stroke:#190f17;}.cls-6,.cls-7{stroke-miterlimit:10;}.cls-7{fill:aqua;stroke:#5efff4;}.cls-8{fill:#7f7d75;}</style></defs><title>R1</title><g id="Layer_2" data-name="Layer 2"><g id="DESIGNmain"><g id="ROCK_copy" data-name="ROCK copy"><g id="R_Dinosaur_copy" data-name="R_Dinosaur copy"><g id="Body_copy_4" data-name="Body copy 4"><path class="cls-1" d="M87.67,16.06s8.85,5.28,26.41,1.44c0,0,4-6.75-3-16.44,0,0-8-2.38-23.41,0,0,0-16.28,1.09-12.81,24.32,0,0-.65,37.56-22.25,56.11,0,0-28.52,26-52.61,5.27,0,0,8.86,29.07,59.26,29.07a30.51,30.51,0,0,1,4.42,11.08s-1,4.24.36,5.25c0,0,5.92,6.09,19.45,0,0,0,1.52-3.72-4.4-5.92V113.89a16.69,16.69,0,0,1,2.88,12s7.27,6.6,18.44-.17c0,0,4.23-3.38-3.89-5.75L96,104.25s15.56-9,4.4-44.15l-1.19-3.21s8.8,6.25,11.34,12.51c0,0,4.72,4.56,4.3-4.31S98.55,53.16,98.55,53.16l-1-3.55s12.73,1.19,17.36-7.27c0,0,3.32-6.09,0-5.92,0,0-3.66-.68-4.16,1.18A25.8,25.8,0,0,1,96.85,47.92S96,37.43,92.12,28.81c0,0-.85-3.9,0-4.57l.84-.68s6.26,7.28,13.33,5.65c0,0,4.1-1.08,4.44-4.13C110.73,25.08,89.64,20.9,87.67,16.06Z"/><g id="Highlight1_copy_4" data-name="Highlight1 copy 4"><path class="cls-2" d="M66,94.74s7.79-34.84,34.1-34.69c0,0,20.24,41.84-21,53.84C79.09,113.89,86.09,92.39,66,94.74Z"/><path class="cls-2" d="M46.45,94.46a1,1,0,0,0,0-2,1,1,0,0,0,0,2Z"/><path class="cls-2" d="M34.76,97.47a1,1,0,0,0,0-2,1,1,0,0,0,0,2Z"/><path class="cls-2" d="M29.92,97.3a1,1,0,0,0,0-2,1,1,0,0,0,0,2Z"/><path class="cls-2" d="M66.5,71.74a1,1,0,0,0,0-2,1,1,0,0,0,0,2Z"/><path class="cls-2" d="M66.17,81.77a1,1,0,0,0,0-2,1,1,0,0,0,0,2Z"/><path class="cls-2" d="M53.64,86.44c2.57,0,2.57-4,0-4s-2.58,4,0,4Z"/><path class="cls-2" d="M57.14,92c2.58,0,2.58-4,0-4s-2.57,4,0,4Z"/><path class="cls-2" d="M45.28,101c2.58,0,2.58-4,0-4s-2.57,4,0,4Z"/><path class="cls-2" d="M40.44,96.3c2.57,0,2.58-4,0-4s-2.58,4,0,4Z"/><path class="cls-2" d="M64.83,75.92"/><path class="cls-2" d="M64.83,77.92c2.57,0,2.58-4,0-4s-2.58,4,0,4Z"/><path class="cls-2" d="M60,82.27"/><path class="cls-2" d="M60,85.27c3.87,0,3.87-6,0-6s-3.86,6,0,6Z"/><path class="cls-2" d="M51.47,91a.5.5,0,0,0,0-1,.5.5,0,0,0,0,1Z"/><path class="cls-2" d="M51,96a1,1,0,0,0,0-2,1,1,0,0,0,0,2Z"/><path class="cls-2" d="M48,89.28a1,1,0,0,0,0-2,1,1,0,0,0,0,2Z"/></g></g><g id="Face_copy_4" data-name="Face copy 4"><g id="CHeek"><path class="cls-3" d="M86.06,13.38"/><path class="cls-3" d="M86.06,15.38c2.58,0,2.58-4,0-4s-2.58,4,0,4Z"/></g><g id="Eyes"><path class="cls-4" d="M88.93,7.85c2.78.45,5-1.08,6.8-3,.66-.7-.4-1.76-1.06-1.06-1.4,1.48-3.14,3-5.34,2.64-.94-.15-1.35,1.29-.4,1.44Z"/><path class="cls-4" d="M95.27,4.67A4.31,4.31,0,0,0,99.82,4c.25-.2-.1-.55-.35-.35a3.81,3.81,0,0,1-4,.56c-.29-.12-.55.31-.25.43Z"/><path class="cls-4" d="M94.08,6.07a7.37,7.37,0,0,0,3,.53c.32,0,.32-.51,0-.5a6.84,6.84,0,0,1-2.9-.51c-.3-.12-.43.36-.14.48Z"/><path class="cls-4" d="M92.64,7a2.41,2.41,0,0,0,2.23,1.51.25.25,0,0,0,0-.5,1.88,1.88,0,0,1-1.74-1.14c-.13-.29-.61-.17-.49.13Z"/><path class="cls-4" d="M90.88,7.58a3.28,3.28,0,0,1-.38,3c-.18.27.25.52.43.25a3.74,3.74,0,0,0,.43-3.37c-.11-.3-.59-.17-.48.13Z"/><path class="cls-4" d="M89.41,7.73a3.53,3.53,0,0,1-2.28,1.39c-.32.05-.18.54.13.48A4,4,0,0,0,89.84,8c.19-.26-.24-.51-.43-.26Z"/></g></g><g id="Microphone_copy_4" data-name="Microphone copy 4"><path class="cls-5" d="M110.74,5.37a1,1,0,0,0,0-2,1,1,0,0,0,0,2Z"/><path class="cls-6" d="M108.69,35.07s7.86,5.69,8.31,11c0,0-2.4,6-10.48-9.12Z"/><circle class="cls-7" cx="106.52" cy="34.16" r="3.91"/><g id="Layer_21_copy_4" data-name="Layer 21 copy 4"><path class="cls-8" d="M109.57,42.19a13.51,13.51,0,0,0,3.63,3.48c.54.36,1-.51.5-.86a12.44,12.44,0,0,1-3.27-3.12c-.37-.52-1.24,0-.86.5Z"/><path class="cls-8" d="M115.29,46.62a.5.5,0,0,0,0-1,.5.5,0,0,0,0,1Z"/></g></g></g></g></g></g></svg>